<?xml version="1.0" encoding="UTF-8" standalone="no"?>
<svg
   version="1.1"
   width="3.4039261in"
   height="0.53339088in"
   viewBox="0 0 245.08317 38.40419"
   id="svg124"
   sodipodi:docname="Arainfo - Daniel Hemerson.cdr"
   xmlns:inkscape="http://www.inkscape.org/namespaces/inkscape"
   xmlns:sodipodi="http://sodipodi.sourceforge.net/DTD/sodipodi-0.dtd"
   xmlns="http://www.w3.org/2000/svg"
   xmlns:svg="http://www.w3.org/2000/svg">
  <defs
     id="defs124" />
  <sodipodi:namedview
     id="namedview124"
     pagecolor="#ffffff"
     bordercolor="#000000"
     borderopacity="0.25"
     inkscape:showpageshadow="2"
     inkscape:pageopacity="0.0"
     inkscape:pagecheckerboard="0"
     inkscape:deskcolor="#d1d1d1"
     inkscape:document-units="in"
     showgrid="false" />
  <g
     id="Layer1001"
     transform="translate(-177.22,-199.1576)">
    <g
       id="Layer1002">
      <g
         id="Layer1003">
        <path
           d="m 344.7599,227.0065 v -25.8436 h 23.107 v 4.3674 H 351.57 v 6.1361 h 14.0896 v 4.3674 H 351.57 v 10.9727 z"
           style="fill:#ffffff;fill-rule:evenodd;stroke:#ffffff;stroke-width:4;stroke-linecap:butt;stroke-linejoin:round;stroke-dasharray:none"
           id="path2" />
        <path
           d="m 315.1572,227.0065 v -25.8436 h 6.5908 l 13.8391,17.3193 v -17.3193 h 6.2934 v 25.8436 h -6.8021 l -13.6279,-16.9884 v 16.9884 z"
           style="fill:#ffffff;fill-rule:evenodd;stroke:#ffffff;stroke-width:4;stroke-linecap:butt;stroke-linejoin:round;stroke-dasharray:none"
           id="path3" />
        <path
           d="m 305.4677,227.0065 v -25.8436 h 6.81 v 25.8436 z"
           style="fill:#ffffff;fill-rule:evenodd;stroke:#ffffff;stroke-width:4;stroke-linecap:butt;stroke-linejoin:round;stroke-dasharray:none"
           id="path4" />
        <g
           id="Layer1004">
          <path
             d="m 392.3043,201.1576 c 7.3134,1.4989 12.7005,6.6172 12.7005,12.7019 0,7.2608 -7.6702,13.1469 -17.132,13.1469 -9.4619,0 -17.1321,-5.8861 -17.1321,-13.1469 0,-6.0847 5.3871,-11.203 12.7005,-12.7019 v 4.4913 c -4.3579,1.3094 -7.4342,4.4919 -7.4342,8.2106 0,4.8871 5.3125,8.8489 11.8658,8.8489 6.5532,0 11.8657,-3.9618 11.8657,-8.8489 0,-3.7187 -3.0762,-6.9012 -7.4342,-8.2106 z"
             style="fill:#ffffff;fill-rule:evenodd;stroke:#ffffff;stroke-width:4;stroke-linecap:butt;stroke-linejoin:round;stroke-dasharray:none"
             id="path5" />
          <path
             d="m 385.3229,201.1576 v 12.9244 h 5.0997 v -12.9244 z"
             style="fill:#ffffff;fill-rule:evenodd;stroke:#ffffff;stroke-width:4;stroke-linecap:butt;stroke-linejoin:round;stroke-dasharray:none"
             id="path6" />
        </g>
      </g>
      <g
         id="Layer1005">
        <path
           d="m 256.8254,227.0066 h 6.3053 l -6.7902,-10.2732 c 0.9699,-0.1658 1.8861,-0.4904 2.7485,-0.9735 0.8619,-0.4832 1.6074,-1.0632 2.2363,-1.74 0.6286,-0.6765 1.1225,-1.4358 1.4819,-2.2781 0.3593,-0.8423 0.5388,-1.7054 0.5388,-2.5892 l -2e-4,-0.0545 h -5.9816 l 1e-4,0.0131 c 0,0.3866 -0.063,0.7872 -0.1885,1.2013 -0.126,0.4142 -0.3322,0.7939 -0.62,1.1391 -0.2872,0.3452 -0.6466,0.6284 -1.0776,0.8493 -0.431,0.2208 -0.9339,0.3312 -1.509,0.3312 h -6.6284 z m 5.4661,-21.6237 c -0.4367,-0.7309 -0.9744,-1.3798 -1.6128,-1.9469 -0.8085,-0.7179 -1.7515,-1.2773 -2.8295,-1.6776 -1.0777,-0.4005 -2.2092,-0.6008 -3.3951,-0.6008 h -20.6936 v 4.2253 h 5.766 14.281 z m -28.531,3.7152 v 17.9085 h 5.766 v -17.9085 z"
           style="fill:#ffffff;fill-rule:evenodd;stroke:#ffffff;stroke-width:4;stroke-linecap:butt;stroke-linejoin:round;stroke-dasharray:none"
           id="path7" />
        <path
           d="m 212.6996,201.1578 18.1815,25.8488 h -23.2535 l 3.5675,-5.0717 h 9.5648 l -2.9125,-4.1403 -3.7382,-0.004 1.8629,-2.6623 -3.2725,-4.6521 -11.6268,16.5301 h -6.5546 z"
           style="fill:#ffffff;fill-rule:evenodd;stroke:#ffffff;stroke-width:4;stroke-linecap:butt;stroke-linejoin:round;stroke-dasharray:none"
           id="path8" />
        <path
           d="m 284.4068,201.1577 18.1815,25.8487 h -23.2535 l 3.5675,-5.0716 h 9.5647 l -2.9124,-4.1404 -3.7382,-0.004 1.8629,-2.6622 -3.2725,-4.6521 -11.6268,16.53 h -6.5546 z"
           style="fill:#ffffff;fill-rule:evenodd;stroke:#ffffff;stroke-width:4;stroke-linecap:butt;stroke-linejoin:round;stroke-dasharray:none"
           id="path9" />
      </g>
      <path
         d="m 305.4677,229.8859 h 99.5371 v 5.6759 h -99.5371 z"
         style="fill:#ffffff;fill-rule:evenodd;stroke:#ffffff;stroke-width:4;stroke-linecap:butt;stroke-linejoin:round;stroke-dasharray:none"
         id="path10" />
      <text
         x="318.9631"
         y="234.7758"
         id="text10"><tspan
           font-family="'Agency FB'"
           font-size="4.5px"
           fill="#ffffff"
           id="tspan10">ASSISTÊNCIA TÉCNICA</tspan></text>
      <g
         id="Layer1006">
        <path
           d="m 408.9513,229.8859 h 5.6759 v -23.0524 h -5.6759 v -5.6759 h 5.6759 4.7624 0.9135 v 34.4042 h -0.9135 -4.7624 -5.6759 z"
           style="fill:#ffffff;fill-rule:evenodd;stroke:#ffffff;stroke-width:4;stroke-linecap:butt;stroke-linejoin:round;stroke-dasharray:none"
           id="path11" />
        <path
           d="m 190.5717,229.8859 h -5.6759 v -23.0524 h 5.6759 v -5.6759 h -5.6759 -4.7624 -0.9134 v 34.4042 h 0.9134 4.7624 5.6759 z"
           style="fill:#ffffff;fill-rule:evenodd;stroke:#ffffff;stroke-width:4;stroke-linecap:butt;stroke-linejoin:round;stroke-dasharray:none"
           id="path12" />
      </g>
    </g>
    <g
       id="Layer1007">
      <g
         id="Layer1008">
        <path
           d="m 344.7599,227.0065 v -25.8436 h 23.107 v 4.3674 H 351.57 v 6.1361 h 14.0896 v 4.3674 H 351.57 v 10.9727 z"
           style="fill:#0000ff;fill-rule:evenodd"
           id="path13" />
        <path
           d="m 315.1572,227.0065 v -25.8436 h 6.5908 l 13.8391,17.3193 v -17.3193 h 6.2934 v 25.8436 h -6.8021 l -13.6279,-16.9884 v 16.9884 z"
           style="fill:#0000ff;fill-rule:evenodd"
           id="path14" />
        <path
           d="m 305.4677,227.0065 v -25.8436 h 6.81 v 25.8436 z"
           style="fill:#0000ff;fill-rule:evenodd"
           id="path15" />
        <g
           id="Layer1009">
          <path
             d="m 392.3043,201.1576 c 7.3134,1.4989 12.7005,6.6172 12.7005,12.7019 0,7.2608 -7.6702,13.1469 -17.132,13.1469 -9.4619,0 -17.1321,-5.8861 -17.1321,-13.1469 0,-6.0847 5.3871,-11.203 12.7005,-12.7019 v 4.4913 c -4.3579,1.3094 -7.4342,4.4919 -7.4342,8.2106 0,4.8871 5.3125,8.8489 11.8658,8.8489 6.5532,0 11.8657,-3.9618 11.8657,-8.8489 0,-3.7187 -3.0762,-6.9012 -7.4342,-8.2106 z"
             style="fill:#0000ff;fill-rule:evenodd"
             id="path16" />
          <path
             d="m 385.3229,201.1576 v 12.9244 h 5.0997 v -12.9244 z"
             style="fill:#ff4401;fill-rule:evenodd"
             id="path17" />
        </g>
      </g>
      <g
         id="Layer1010">
        <path
           d="m 256.8254,227.0066 h 6.3053 l -6.7902,-10.2732 c 0.9699,-0.1658 1.8861,-0.4904 2.7485,-0.9735 0.8619,-0.4832 1.6074,-1.0632 2.2363,-1.74 0.6286,-0.6765 1.1225,-1.4358 1.4819,-2.2781 0.3593,-0.8423 0.5388,-1.7054 0.5388,-2.5892 l -2e-4,-0.0545 h -5.9816 l 1e-4,0.0131 c 0,0.3866 -0.063,0.7872 -0.1885,1.2013 -0.126,0.4142 -0.3322,0.7939 -0.62,1.1391 -0.2872,0.3452 -0.6466,0.6284 -1.0776,0.8493 -0.431,0.2208 -0.9339,0.3312 -1.509,0.3312 h -6.6284 z m 5.4661,-21.6237 c -0.4367,-0.7309 -0.9744,-1.3798 -1.6128,-1.9469 -0.8085,-0.7179 -1.7515,-1.2773 -2.8295,-1.6776 -1.0777,-0.4005 -2.2092,-0.6008 -3.3951,-0.6008 h -20.6936 v 4.2253 h 5.766 14.281 z m -28.531,3.7152 v 17.9085 h 5.766 v -17.9085 z"
           style="fill:#ff4401;fill-rule:evenodd"
           id="path18" />
        <path
           d="m 212.6996,201.1578 18.1815,25.8488 h -23.2535 l 3.5675,-5.0717 h 9.5648 l -2.9125,-4.1403 -3.7382,-0.004 1.8629,-2.6623 -3.2725,-4.6521 -11.6268,16.5301 h -6.5546 z"
           style="fill:#ff4401;fill-rule:evenodd"
           id="path19" />
        <path
           d="m 284.4068,201.1577 18.1815,25.8487 h -23.2535 l 3.5675,-5.0716 h 9.5647 l -2.9124,-4.1404 -3.7382,-0.004 1.8629,-2.6622 -3.2725,-4.6521 -11.6268,16.53 h -6.5546 z"
           style="fill:#ff4401;fill-rule:evenodd"
           id="path20" />
      </g>
      <path
         d="m 305.4677,229.8859 h 99.5371 v 5.6759 h -99.5371 z"
         style="fill:#ff4401;fill-rule:evenodd"
         id="path21" />
      <text
         x="318.9631"
         y="234.7758"
         id="text21"><tspan
           font-family="'Agency FB'"
           font-size="4.5px"
           fill="#ffffff"
           id="tspan21">ASSISTÊNCIA TÉCNICA</tspan></text>
      <g
         id="Layer1011">
        <path
           d="m 408.9513,229.8859 h 5.6759 v -23.0524 h -5.6759 v -5.6759 h 5.6759 4.7624 0.9135 v 34.4042 h -0.9135 -4.7624 -5.6759 z"
           style="fill:#0000ff;fill-rule:evenodd"
           id="path22" />
        <path
           d="m 190.5717,229.8859 h -5.6759 v -23.0524 h 5.6759 v -5.6759 h -5.6759 -4.7624 -0.9134 v 34.4042 h 0.9134 4.7624 5.6759 z"
           style="fill:#0000ff;fill-rule:evenodd"
           id="path23" />
      </g>
    </g>
  </g>
</svg>
